<mxfile host="app.diagrams.net" agent="Mozilla/5.0 (Windows NT 10.0; Win64; x64) AppleWebKit/537.36 (KHTML, like Gecko) Chrome/140.0.0.0 Safari/537.36" version="27.1.6">
  <diagram name="Page-1" id="kyLAMzzom4AZ0dudopp1">
    <mxGraphModel dx="912" dy="539" grid="0" gridSize="10" guides="1" tooltips="1" connect="1" arrows="1" fold="1" page="1" pageScale="1" pageWidth="2000" pageHeight="1000" math="0" shadow="0">
      <root>
        <mxCell id="0" />
        <mxCell id="1" parent="0" />
        <mxCell id="SiwChzrxIQ7Hm7JpCcLg-1" value="Vertical Container" style="swimlane;whiteSpace=wrap;html=1;startSize=33;strokeColor=default;swimlaneLine=1;" vertex="1" parent="1">
          <mxGeometry x="671" y="373" width="341" height="296" as="geometry" />
        </mxCell>
        <mxCell id="SiwChzrxIQ7Hm7JpCcLg-2" value="" style="endArrow=none;html=1;rounded=0;exitX=0;exitY=0.75;exitDx=0;exitDy=0;entryX=1;entryY=0.75;entryDx=0;entryDy=0;" edge="1" parent="1" source="SiwChzrxIQ7Hm7JpCcLg-1" target="SiwChzrxIQ7Hm7JpCcLg-1">
          <mxGeometry width="50" height="50" relative="1" as="geometry">
            <mxPoint x="868" y="503" as="sourcePoint" />
            <mxPoint x="918" y="453" as="targetPoint" />
          </mxGeometry>
        </mxCell>
      </root>
    </mxGraphModel>
  </diagram>
</mxfile>
